<?xml version="1.0" encoding="UTF-8" standalone="no"?><!DOCTYPE svg PUBLIC "-//W3C//DTD SVG 1.1//EN" "http://www.w3.org/Graphics/SVG/1.1/DTD/svg11.dtd"><svg width="100%" height="100%" viewBox="0 0 246 288" version="1.1" xmlns="http://www.w3.org/2000/svg" xmlns:xlink="http://www.w3.org/1999/xlink" xml:space="preserve" xmlns:serif="http://www.serif.com/" style="fill-rule:evenodd;clip-rule:evenodd;stroke-linejoin:round;stroke-miterlimit:2;"><rect id="CV" x="0.799" y="0.287" width="244.936" height="287.45" style="fill:none;"/><path d="M209.026,46.574l-24,-0l0,-22.287l-160.227,0c-0,0 -0,239.451 -0,239.451c-0,-0 160.227,-0 160.227,-0l0,-27.419l12.175,12.174l11.825,-11.825l0,51.07l-208.227,-0l-0,-287.451l208.227,0l0,46.287Zm-23.958,131.426l-0,-114.426l24.266,-0l0,114.426l19.241,-19.241l17.16,17.159l-48.534,48.533l-48.534,-48.533l17.16,-17.159l19.241,19.241Zm-61.801,-21.565c-0,8.194 -1.875,15.467 -5.624,21.817c-3.748,6.351 -9.044,11.288 -15.886,14.812c-6.842,3.523 -14.709,5.285 -23.6,5.285c-8.849,-0 -16.685,-1.762 -23.507,-5.285c-6.822,-3.524 -12.107,-8.461 -15.856,-14.812c-3.749,-6.35 -5.623,-13.623 -5.623,-21.817c-0,-6.187 1.065,-11.871 3.196,-17.054c2.13,-5.183 5.182,-9.639 9.157,-13.367c3.974,-3.728 8.706,-6.576 14.196,-8.543l6.515,18.192c-4.63,1.68 -8.225,4.312 -10.786,7.897c-2.561,3.585 -3.841,7.877 -3.841,12.875c-0,4.589 1.065,8.584 3.196,11.984c2.13,3.401 5.193,6.023 9.188,7.867c3.994,1.843 8.716,2.765 14.165,2.765c5.491,0 10.243,-0.922 14.258,-2.765c4.016,-1.844 7.088,-4.466 9.219,-7.867c2.13,-3.4 3.196,-7.395 3.196,-11.984c-0,-4.998 -1.281,-9.29 -3.841,-12.875c-2.561,-3.585 -6.156,-6.217 -10.786,-7.897l6.514,-18.192c5.491,1.967 10.223,4.815 14.197,8.543c3.974,3.728 7.027,8.184 9.157,13.367c2.131,5.183 3.196,10.867 3.196,17.054Zm-34.232,-82.229l-53.652,-20.035l0,-21.387l85.671,34.416l0,14.135l-85.671,34.539l0,-21.265l53.652,-20.403Z"/></svg>