<svg xmlns="http://www.w3.org/2000/svg" xmlns:xlink="http://www.w3.org/1999/xlink" height="384" viewBox="0 0 360 288" width="480" stroke-linecap="butt" stroke-linejoin="round" xmlns:v="https://vecta.io/nano"><style><![CDATA[.B{stroke-linejoin:round}.C{stroke-linecap:butt}.D{stroke:#000}.E{stroke-width:.8}.F{stroke-width:1.5}.G{clip-path:url(#r)}.H{stroke-linecap:square}.I{stroke:#00f}.J{stroke-linejoin:miter}]]></style><path d="M45 252h279V34.56H45z" fill="#fff"/><defs><path d="M0 0v3.5" id="A" class="B C D E"/></defs><use x="57.682" xlink:href="#A" y="252" class="D E"/><g transform="matrix(.1 0 0 -.1 54.500568 266.598437)"><defs><path d="M2034 4250q-487 0-733-480-245-479-245-1442 0-959 245-1439 246-480 733-480 491 0 736 480 246 480 246 1439 0 963-246 1442-245 480-736 480zm0 500q785 0 1199-621 414-620 414-1801 0-1178-414-1799Q2819-91 2034-91q-784 0-1198 620-414 621-414 1799 0 1181 414 1801 414 621 1198 621z" id="B" transform="scale(.015625)" class="B C"/></defs><use xlink:href="#B"/></g><use x="70.364" xlink:href="#A" y="252" class="D E"/><g transform="matrix(.1 0 0 -.1 67.182386 266.598437)"><defs><path d="M794 531h1031v3560L703 3866v575l1116 225h631V531h1031V0H794v531z" id="C" transform="scale(.015625)" class="B C"/></defs><use xlink:href="#C"/></g><use x="83.045" xlink:href="#A" y="252" class="D E"/><g transform="matrix(.1 0 0 -.1 79.864205 266.598437)"><defs><path d="M1228 531h2203V0H469v531q359 372 979 998 621 627 780 809 303 340 423 576 121 236 121 464 0 372-261 606-261 235-680 235-297 0-627-103-329-103-704-313v638q381 153 712 231 332 78 607 78 725 0 1156-363 431-362 431-968 0-288-108-546-107-257-392-607-78-91-497-524-418-433-1181-1211z" id="D" transform="scale(.015625)" class="B C"/></defs><use xlink:href="#D"/></g><use x="95.727" xlink:href="#A" y="252" class="D E"/><g transform="matrix(.1 0 0 -.1 92.546023 266.598437)"><defs><path d="M2597 2516q453-97 707-404 255-306 255-756 0-690-475-1069Q2609-91 1734-91q-293 0-604 58-311 58-642 174v609q262-153 574-231 313-78 654-78 593 0 904 234 311 234 311 681 0 413-289 645-289 233-804 233h-544v519h569q465 0 712 186 247 186 247 536 0 359-255 551-254 193-729 193-260 0-557-57-297-56-653-174v562q360 100 674 150 314 50 592 50 719 0 1137-327 419-326 419-882 0-388-222-655-222-267-631-370z" id="E" transform="scale(.015625)" class="B C"/></defs><use xlink:href="#E"/></g><use x="108.409" xlink:href="#A" y="252" class="D E"/><g transform="matrix(.1 0 0 -.1 105.227841 266.598437)"><defs><path d="M2419 4116L825 1625h1594v2491zm-166 550h794V1625h666v-525h-666V0h-628v1100H313v609l1940 2957z" id="F" transform="scale(.015625)" class="B C"/></defs><use xlink:href="#F"/></g><use x="121.091" xlink:href="#A" y="252" class="D E"/><g transform="matrix(.1 0 0 -.1 117.909659 266.598437)"><defs><path d="M691 4666h2478v-532H1269V2991q137 47 274 70 138 23 276 23 781 0 1237-428 457-428 457-1159 0-753-469-1171Q2575-91 1722-91q-294 0-599 50Q819 9 494 109v635q281-153 581-228 300-75 634-75 541 0 856 284 316 284 316 772 0 487-316 771-315 285-856 285-253 0-505-56-251-56-513-175v2344z" id="G" transform="scale(.015625)" class="B C"/></defs><use xlink:href="#G"/></g><use x="133.773" xlink:href="#A" y="252" class="D E"/><g transform="matrix(.1 0 0 -.1 130.591477 266.598437)"><defs><path d="M2113 2584q-425 0-674-291-248-290-248-796 0-503 248-796 249-292 674-292 425 0 673 292 248 293 248 796 0 506-248 796-248 291-673 291zm1253 1979v-575q-238 112-480 171-242 60-480 60-625 0-955-422-329-422-376-1275 184 272 462 417 279 145 613 145 703 0 1111-427 408-426 408-1160 0-719-425-1154Q2819-91 2113-91q-810 0-1238 620-428 621-428 1799 0 1106 525 1764 525 658 1409 658 238 0 480-47 242-47 505-140z" id="H" transform="scale(.015625)" class="B C"/></defs><use xlink:href="#H"/></g><use x="146.455" xlink:href="#A" y="252" class="D E"/><g transform="matrix(.1 0 0 -.1 143.273295 266.598437)"><defs><path d="M525 4666h3000v-269L1831 0h-659l1594 4134H525v532z" id="I" transform="scale(.015625)" class="B C"/></defs><use xlink:href="#I"/></g><use x="159.136" xlink:href="#A" y="252" class="D E"/><g transform="matrix(.1 0 0 -.1 155.955114 266.598437)"><defs><path d="M2034 2216q-450 0-708-241-257-241-257-662 0-422 257-663 258-241 708-241 450 0 709 242 260 243 260 662 0 421-258 662-257 241-711 241zm-631 268q-406 100-633 378-226 279-226 679 0 559 398 884 399 325 1092 325 697 0 1094-325 397-325 397-884 0-400-227-679-226-278-629-378 456-106 710-416 255-309 255-755 0-679-414-1042Q2806-91 2034-91q-771 0-1186 362-414 363-414 1042 0 446 256 755 257 310 713 416zm-231 997q0-362 226-565 227-203 636-203 407 0 636 203 230 203 230 565 0 363-230 566-229 203-636 203-409 0-636-203-226-203-226-566z" id="J" transform="scale(.015625)" class="B C"/></defs><use xlink:href="#J"/></g><use x="171.818" xlink:href="#A" y="252" class="D E"/><g transform="matrix(.1 0 0 -.1 168.636932 266.598437)"><defs><path d="M703 97v575q238-113 481-172 244-59 479-59 625 0 954 420 330 420 377 1277-181-269-460-413-278-144-615-144-700 0-1108 423-408 424-408 1159 0 718 425 1152 425 435 1131 435 810 0 1236-621 427-620 427-1801 0-1103-524-1761Q2575-91 1691-91q-238 0-482 47Q966 3 703 97zm1256 1978q425 0 673 290 249 291 249 798 0 503-249 795-248 292-673 292-425 0-673-292-248-292-248-795 0-507 248-798 248-290 673-290z" id="K" transform="scale(.015625)" class="B C"/></defs><use xlink:href="#K"/></g><use x="184.5" xlink:href="#A" y="252" class="D E"/><g transform="matrix(.1 0 0 -.1 178.1375 266.598437)"><use xlink:href="#C"/><use x="63.623" xlink:href="#B"/></g><use x="197.182" xlink:href="#A" y="252" class="D E"/><g transform="matrix(.1 0 0 -.1 190.819318 266.598437)"><use xlink:href="#C"/><use x="63.623" xlink:href="#C"/></g><use x="209.864" xlink:href="#A" y="252" class="D E"/><g transform="matrix(.1 0 0 -.1 203.501136 266.598437)"><use xlink:href="#C"/><use x="63.623" xlink:href="#D"/></g><use x="222.545" xlink:href="#A" y="252" class="D E"/><g transform="matrix(.1 0 0 -.1 216.182955 266.598437)"><use xlink:href="#C"/><use x="63.623" xlink:href="#E"/></g><use x="235.227" xlink:href="#A" y="252" class="D E"/><g transform="matrix(.1 0 0 -.1 228.864773 266.598437)"><use xlink:href="#C"/><use x="63.623" xlink:href="#F"/></g><use x="247.909" xlink:href="#A" y="252" class="D E"/><g transform="matrix(.1 0 0 -.1 241.546591 266.598437)"><use xlink:href="#C"/><use x="63.623" xlink:href="#G"/></g><use x="260.591" xlink:href="#A" y="252" class="D E"/><g transform="matrix(.1 0 0 -.1 254.228409 266.598437)"><use xlink:href="#C"/><use x="63.623" xlink:href="#H"/></g><use x="273.273" xlink:href="#A" y="252" class="D E"/><g transform="matrix(.1 0 0 -.1 266.910227 266.598437)"><use xlink:href="#C"/><use x="63.623" xlink:href="#I"/></g><use x="285.955" xlink:href="#A" y="252" class="D E"/><g transform="matrix(.1 0 0 -.1 279.592045 266.598437)"><use xlink:href="#C"/><use x="63.623" xlink:href="#J"/></g><use x="298.636" xlink:href="#A" y="252" class="D E"/><g transform="matrix(.1 0 0 -.1 292.273864 266.598437)"><use xlink:href="#C"/><use x="63.623" xlink:href="#K"/></g><use x="311.318" xlink:href="#A" y="252" class="D E"/><g transform="matrix(.1 0 0 -.1 304.955682 266.598437)"><use xlink:href="#D"/><use x="63.623" xlink:href="#B"/></g><g transform="matrix(.1 0 0 -.1 117.35625 280.1)"><defs><path d="M2522 4238q-688 0-1093-513-404-512-404-1397 0-881 404-1394 405-512 1093-512 687 0 1089 512 402 513 402 1394 0 885-402 1397-402 513-1089 513zm0 512q981 0 1568-658 588-658 588-1764 0-1103-588-1761Q3503-91 2522-91q-984 0-1574 656-589 657-589 1763 0 1106 589 1764 590 658 1574 658z" id="L" transform="scale(.015625)" class="B C"/><path d="M2841 2188q203-69 395-294 192-225 386-619L4263 0h-679l-596 1197q-232 469-449 622-217 153-592 153h-688V0H628v4666h1425q800 0 1194-335 394-334 394-1009 0-441-205-732-205-290-595-402zM1259 4147V2491h794q456 0 689 211 233 211 233 620 0 409-233 617-233 208-689 208h-794z" id="M" transform="scale(.015625)" class="B C"/><path d="M628 4666h631V0H628v4666z" id="N" transform="scale(.015625)" class="B C"/><path d="M628 4666h2950v-532H1259V2753h2222v-531H1259V531h2375V0H628v4666z" id="O" transform="scale(.015625)" class="B C"/><path d="M628 4666h850L3547 763v3903h612V0h-850L1241 3903V0H628v4666z" id="P" transform="scale(.015625)" class="B C"/><path d="M-19 4666h3947v-532H2272V0h-634v4134H-19v532z" id="Q" transform="scale(.015625)" class="B C"/><path d="M2188 4044l-857-2322h1716l-859 2322zm-357 622h716L4325 0h-656l-425 1197H1141L716 0H50l1781 4666z" id="R" transform="scale(.015625)" class="B C"/><path d="M3263-1063v-446H-63v446h3326z" id="S" transform="scale(.015625)" class="B C"/><path d="M628 4666h631V2753h2294v1913h631V0h-631v2222H1259V0H628v4666z" id="T" transform="scale(.015625)" class="B C"/><path d="M3425 4513v-616q-359 172-678 256-319 85-616 85-515 0-795-200-280-200-280-569 0-310 186-468 186-157 705-254l381-78q706-135 1042-474 336-339 336-907 0-679-455-1029Q2797-91 1919-91q-331 0-705 75-373 75-773 222v650q384-215 753-325 369-109 725-109 540 0 834 212 294 213 294 607 0 343-211 537-211 194-692 291l-385 75q-706 140-1022 440-315 300-315 835 0 619 436 975 436 356 1201 356 329 0 669-60 341-59 697-177z" id="U" transform="scale(.015625)" class="B C"/><path d="M628 4666h631V531h2272V0H628v4666z" id="V" transform="scale(.015625)" class="B C"/><path d="M1259 4147V519h763q966 0 1414 437 448 438 448 1382 0 937-448 1373-448 436-1414 436h-763zm-631 519h1297q1356 0 1990-564 635-564 635-1764 0-1207-638-1773Q3275 0 1925 0H628v4666z" id="W" transform="scale(.015625)" class="B C"/></defs><use xlink:href="#L"/><use x="78.711" xlink:href="#M"/><use x="148.193" xlink:href="#N"/><use x="177.686" xlink:href="#O"/><use x="240.869" xlink:href="#P"/><use x="315.674" xlink:href="#Q"/><use x="369.008" xlink:href="#R"/><use x="429.666" xlink:href="#Q"/><use x="490.75" xlink:href="#N"/><use x="520.242" xlink:href="#L"/><use x="598.953" xlink:href="#P"/><use x="673.758" xlink:href="#S"/><use x="723.758" xlink:href="#Q"/><use x="784.842" xlink:href="#T"/><use x="860.037" xlink:href="#M"/><use x="929.52" xlink:href="#O"/><use x="992.703" xlink:href="#U"/><use x="1056.18" xlink:href="#T"/><use x="1131.375" xlink:href="#L"/><use x="1210.086" xlink:href="#V"/><use x="1265.799" xlink:href="#W"/></g><defs><path d="M0 0h-3.5" id="X" class="B C D E"/></defs><use x="45" xlink:href="#X" y="236.625" class="D E"/><g transform="matrix(.1 0 0 -.1 15.734375 240.424673)"><defs><path d="M684 794h660V0H684v794z" id="Y" transform="scale(.015625)" class="B C"/></defs><use xlink:href="#J"/><use x="63.623" xlink:href="#D"/><use x="127.246" xlink:href="#Y"/><use x="159.033" xlink:href="#G"/></g><use x="45" xlink:href="#X" y="209.171" class="D E"/><g transform="matrix(.1 0 0 -.1 15.734375 212.970128)"><use xlink:href="#J"/><use x="63.623" xlink:href="#G"/><use x="127.246" xlink:href="#Y"/><use x="159.033" xlink:href="#B"/></g><use x="45" xlink:href="#X" y="181.716" class="D E"/><g transform="matrix(.1 0 0 -.1 15.734375 185.515582)"><use xlink:href="#J"/><use x="63.623" xlink:href="#I"/><use x="127.246" xlink:href="#Y"/><use x="159.033" xlink:href="#G"/></g><use x="45" xlink:href="#X" y="154.262" class="D E"/><g transform="matrix(.1 0 0 -.1 15.734375 158.061037)"><use xlink:href="#K"/><use x="63.623" xlink:href="#B"/><use x="127.246" xlink:href="#Y"/><use x="159.033" xlink:href="#B"/></g><use x="45" xlink:href="#X" y="126.807" class="D E"/><g transform="matrix(.1 0 0 -.1 15.734375 130.606491)"><use xlink:href="#K"/><use x="63.623" xlink:href="#D"/><use x="127.246" xlink:href="#Y"/><use x="159.033" xlink:href="#G"/></g><use x="45" xlink:href="#X" y="99.353" class="D E"/><g transform="matrix(.1 0 0 -.1 15.734375 103.151946)"><use xlink:href="#K"/><use x="63.623" xlink:href="#G"/><use x="127.246" xlink:href="#Y"/><use x="159.033" xlink:href="#B"/></g><use x="45" xlink:href="#X" y="71.898" class="D E"/><g transform="matrix(.1 0 0 -.1 15.734375 75.697401)"><use xlink:href="#K"/><use x="63.623" xlink:href="#I"/><use x="127.246" xlink:href="#Y"/><use x="159.033" xlink:href="#G"/></g><use x="45" xlink:href="#X" y="44.444" class="D E"/><g transform="matrix(.1 0 0 -.1 9.371875 48.242855)"><use xlink:href="#C"/><use x="63.623" xlink:href="#B"/><use x="127.246" xlink:href="#B"/><use x="190.869" xlink:href="#Y"/><use x="222.656" xlink:href="#B"/></g><g transform="matrix(0 -.1 -.1 0 3.292187 201.388594)"><defs><path d="M544 1381v2119h575V1403q0-497 193-746 194-248 582-248 465 0 735 297 271 297 271 810v1984h575V0h-575v538q-209-319-486-474-276-155-642-155-603 0-916 375-312 375-312 1097zm1447 2203h0z" id="Z" transform="scale(.015625)" class="B C"/><path d="M3122 3366v-538q-244 135-489 202-245 67-495 67-560 0-870-355-309-354-309-995 0-641 309-996 310-354 870-354 250 0 495 67 245 67 489 202V134Q2881 22 2623-34q-257-57-548-57-791 0-1257 497-465 497-465 1341 0 856 470 1346 471 491 1290 491 265 0 518-55 253-54 491-163z" id="a" transform="scale(.015625)" class="B C"/><path d="M3597 1894v-281H953q38-594 358-905 320-311 892-311 331 0 642 81 311 81 618 244V178Q3153 47 2828-22q-325-69-659-69-838 0-1327 487-489 488-489 1320 0 859 464 1363 464 505 1252 505 706 0 1117-455 411-454 411-1235zm-575 169q-6 471-264 752-258 282-683 282-481 0-770-272-289-272-333-766l2050 4z" id="b" transform="scale(.015625)" class="B C"/><path d="M2834 3397v-544q-243 125-506 187-262 63-544 63-428 0-642-131-214-131-214-394 0-200 153-314 153-114 616-217l197-44q612-131 870-370 258-239 258-667 0-488-386-773Q2250-91 1575-91q-281 0-586 55-305 55-642 164v594q319-166 628-249 309-82 613-82 406 0 624 139 219 139 219 392 0 234-158 359-157 125-692 241l-200 47q-534 112-772 345-237 233-237 639 0 494 350 762 350 269 994 269 318 0 599-47 282-46 519-140z" id="c" transform="scale(.015625)" class="B C"/><path d="M1159 525v-1856H581v4831h578v-531q182 312 458 463 277 152 661 152 638 0 1036-506 399-506 399-1331 0-825-399-1332Q2916-91 2278-91q-384 0-661 152-276 152-458 464zm1957 1222q0 634-261 995-261 361-717 361-457 0-718-361-261-361-261-995 0-634 261-995 261-361 718-361 456 0 717 361 261 361 261 995z" id="d" transform="scale(.015625)" class="B C"/><path d="M2631 2963q-97 56-211 82-114 27-251 27-488 0-749-317-261-317-261-911V0H581v3500h578v-544q182 319 472 473 291 155 707 155 59 0 131-8 72-7 159-23l3-590z" id="e" transform="scale(.015625)" class="B C"/><path d="M3513 2113V0h-575v2094q0 497-194 743-194 247-581 247-466 0-735-297-269-296-269-809V0H581v3500h578v-544q207 316 486 472 280 156 646 156 603 0 912-373 310-373 310-1098z" id="f" transform="scale(.015625)" class="B C"/><path d="M1172 4494v-994h1184v-447H1172V1153q0-428 117-550 117-122 477-122h590V0h-590q-666 0-919 248-253 249-253 905v1900H172v447h422v994h578z" id="g" transform="scale(.015625)" class="B C"/><path d="M2194 1759q-697 0-966-159-269-159-269-544 0-306 202-486 202-179 548-179 479 0 768 339 289 339 289 901v128h-572zm1147 238V0h-575v531q-197-318-491-470-294-152-719-152-537 0-855 302-317 302-317 808 0 590 395 890 396 300 1180 300h807v57q0 397-261 614-261 217-733 217-300 0-585-72-284-72-546-216v532q315 122 612 182 297 61 578 61 760 0 1135-394 375-393 375-1193z" id="h" transform="scale(.015625)" class="B C"/><path d="M2906 1791q0 625-258 968-257 344-723 344-462 0-720-344-258-343-258-968 0-622 258-966 258-344 720-344 466 0 723 344 258 344 258 966zm575-1357q0-893-397-1329-396-436-1215-436-303 0-572 45-269 45-522 139v559q253-137 500-202 247-66 503-66 566 0 847 295 281 295 281 892v285q-178-310-456-463Q2172 0 1784 0 1141 0 747 490 353 981 353 1791q0 812 394 1302 394 491 1037 491 388 0 666-153 278-153 456-462v531h575V434z" id="i" transform="scale(.015625)" class="B C"/><path d="M4653 2053q-272 0-427-231-154-231-154-644 0-406 154-639 155-233 427-233 266 0 420 233 155 233 155 639 0 410-155 642-154 233-420 233zm0 397q494 0 784-344 291-343 291-928 0-584-292-927-292-342-783-342-500 0-791 342-290 343-290 927 0 588 292 930 292 342 789 342zM1428 4353q-269 0-424-233-154-232-154-639 0-412 153-644 153-231 425-231 272 0 426 231 155 232 155 644 0 403-156 637-156 235-425 235zm2822 397h500L1831-91h-500l2919 4841zm-2822 0q494 0 787-342 294-342 294-927 0-590-292-931-292-341-789-341-497 0-786 342-289 343-289 930 0 582 290 925 291 344 785 344z" id="j" transform="scale(.015625)" class="B C"/></defs><use xlink:href="#U"/><use x="63.477" xlink:href="#Z"/><use x="126.855" xlink:href="#a"/><use x="181.836" xlink:href="#a"/><use x="236.816" xlink:href="#b"/><use x="298.34" xlink:href="#c"/><use x="350.439" xlink:href="#c"/><use x="402.539" xlink:href="#BU"/><use x="434.326" xlink:href="#d"/><use x="497.803" xlink:href="#b"/><use x="559.326" xlink:href="#e"/><use x="598.189" xlink:href="#a"/><use x="653.17" xlink:href="#b"/><use x="714.693" xlink:href="#f"/><use x="778.072" xlink:href="#g"/><use x="817.281" xlink:href="#h"/><use x="878.561" xlink:href="#i"/><use x="942.037" xlink:href="#b"/><use x="1003.561" xlink:href="#BU"/><use x="1035.348" xlink:href="#j"/><use x="1130.367" xlink:href="#BU"/></g><g fill="none" class="F"><path d="M83.045 252V34.56M108.409 252V34.56" class="G" stroke="green" stroke-dasharray="5.55,2.4"/><path d="M57.682 110.335h12.682l12.682-32.945 12.682-21.964 12.682-10.982 12.682 10.982h12.682l12.682 21.964 12.682 10.982 12.682 10.982H184.5l12.682 10.982 12.682 21.964 12.682 21.964h12.682 12.682 12.682l12.682 10.982 12.682 10.982h12.682l12.682 10.982" stroke="red" class="G H"/></g><defs><path d="M0 3a3 3 0 0 0 2.121-.879A3 3 0 0 0 3 0a3 3 0 0 0-.879-2.121A3 3 0 0 0 0-3a3 3 0 0 0-2.121.879A3 3 0 0 0-3 0a3 3 0 0 0 .879 2.121A3 3 0 0 0 0 3z" id="k" stroke="red" class="B"/></defs><g fill="red" stroke="red" class="G"><use x="57.682" xlink:href="#k" y="110.335"/><use x="70.364" xlink:href="#k" y="110.335"/><use x="83.045" xlink:href="#k" y="77.389"/><use x="95.727" xlink:href="#k" y="55.425"/><use x="108.409" xlink:href="#k" y="44.444"/><use x="121.091" xlink:href="#k" y="55.425"/><use x="133.773" xlink:href="#k" y="55.425"/><use x="146.455" xlink:href="#k" y="77.389"/><use x="159.136" xlink:href="#k" y="88.371"/><use x="171.818" xlink:href="#k" y="99.353"/><use x="184.5" xlink:href="#k" y="99.353"/><use x="197.182" xlink:href="#k" y="110.335"/><use x="209.864" xlink:href="#k" y="132.298"/><use x="222.545" xlink:href="#k" y="154.262"/><use x="235.227" xlink:href="#k" y="154.262"/><use x="247.909" xlink:href="#k" y="154.262"/><use x="260.591" xlink:href="#k" y="154.262"/><use x="273.273" xlink:href="#k" y="165.244"/><use x="285.955" xlink:href="#k" y="176.225"/><use x="298.636" xlink:href="#k" y="176.225"/><use x="311.318" xlink:href="#k" y="187.207"/></g><path d="M57.682 121.316l12.682-32.945 12.682-32.945 12.682 10.982h12.682 12.682l12.682 21.964 12.682 10.982h12.682l12.682 32.945L184.5 143.28l12.682 10.982h12.682 12.682 12.682l12.682 32.945 12.682 10.982h12.682l12.682 32.945 12.682 10.982h12.682" fill="none" class="F G H I"/><defs><path d="M0 3a3 3 0 0 0 2.121-.879A3 3 0 0 0 3 0a3 3 0 0 0-.879-2.121A3 3 0 0 0 0-3a3 3 0 0 0-2.121.879A3 3 0 0 0-3 0a3 3 0 0 0 .879 2.121A3 3 0 0 0 0 3z" id="l" class="B I"/></defs><g fill="#00f" class="G I"><use x="57.682" xlink:href="#l" y="121.316"/><use x="70.364" xlink:href="#l" y="88.371"/><use x="83.045" xlink:href="#l" y="55.425"/><use x="95.727" xlink:href="#l" y="66.407"/><use x="108.409" xlink:href="#l" y="66.407"/><use x="121.091" xlink:href="#l" y="66.407"/><use x="133.773" xlink:href="#l" y="88.371"/><use x="146.455" xlink:href="#l" y="99.353"/><use x="159.136" xlink:href="#l" y="99.353"/><use x="171.818" xlink:href="#l" y="132.298"/><use x="184.5" xlink:href="#l" y="143.28"/><use x="197.182" xlink:href="#l" y="154.262"/><use x="209.864" xlink:href="#l" y="154.262"/><use x="222.545" xlink:href="#l" y="154.262"/><use x="235.227" xlink:href="#l" y="154.262"/><use x="247.909" xlink:href="#l" y="187.207"/><use x="260.591" xlink:href="#l" y="198.189"/><use x="273.273" xlink:href="#l" y="198.189"/><use x="285.955" xlink:href="#l" y="231.135"/><use x="298.636" xlink:href="#l" y="242.116"/><use x="311.318" xlink:href="#l" y="242.116"/></g><g fill="none" class="D E H J"><path d="M45 252V34.56M324 252V34.56"/><path d="M45 252h279M45 34.56h279"/></g><g transform="matrix(.12 0 0 -.12 75.165937 28.56)"><defs><path d="M2906 2969v1894h575V0h-575v525q-181-312-458-464-276-152-664-152-634 0-1033 506-398 507-398 1332 0 825 398 1331 399 506 1033 506 388 0 664-152 277-151 458-463zM947 1747q0-634 261-995 261-361 717-361 456 0 718 361 263 361 263 995 0 634-263 995-262 361-718 361-456 0-717-361-261-361-261-995z" id="m" transform="scale(.015625)" class="B C"/></defs><use xlink:href="#O"/><use x="63.184" xlink:href="#g"/><use x="102.393" xlink:href="#Z"/><use x="165.771" xlink:href="#m"/><use x="229.248" xlink:href="#b"/><use x="290.771" xlink:href="#BU"/><use x="322.559" xlink:href="#m"/><use x="386.035" xlink:href="#b"/><use x="447.559" xlink:href="#BU"/><use x="479.346" xlink:href="#L"/><use x="558.057" xlink:href="#M"/><use x="627.539" xlink:href="#N"/><use x="657.031" xlink:href="#O"/><use x="720.215" xlink:href="#P"/><use x="795.02" xlink:href="#Q"/><use x="848.354" xlink:href="#R"/><use x="909.012" xlink:href="#Q"/><use x="970.096" xlink:href="#N"/><use x="999.588" xlink:href="#L"/><use x="1078.299" xlink:href="#P"/><use x="1153.104" xlink:href="#S"/><use x="1203.104" xlink:href="#Q"/><use x="1264.188" xlink:href="#T"/><use x="1339.383" xlink:href="#M"/><use x="1408.865" xlink:href="#O"/><use x="1472.049" xlink:href="#U"/><use x="1535.525" xlink:href="#T"/><use x="1610.721" xlink:href="#L"/><use x="1689.432" xlink:href="#V"/><use x="1745.145" xlink:href="#W"/></g><path d="M153.305 71.916H317q2 0 2-2V41.56q0-2-2-2H153.305q-2 0-2 2v28.356q0 2 2 2z" fill="#fff" opacity=".8" stroke="#ccc" class="J"/><g stroke="red"><path d="M155.305 47.658h20" fill="none" class="F H"/><use x="165.305" xlink:href="#k" y="47.658" fill="red"/></g><g transform="matrix(.1 0 0 -.1 183.304688 51.158437)"><defs><path d="M628 4666h2681v-532H1259V2759h1850v-531H1259V0H628v4666z" id="n" transform="scale(.015625)" class="B C"/><path d="M603 3500h575V0H603v3500zm0 1363h575v-729H603v729z" id="o" transform="scale(.015625)" class="B C"/><path d="M1959 3097q-462 0-731-361-269-361-269-989 0-628 267-989 268-361 733-361 460 0 728 362 269 363 269 988 0 622-269 986-268 364-728 364zm0 487q750 0 1178-488 429-487 429-1349 0-859-429-1349Q2709-91 1959-91q-753 0-1180 489-426 490-426 1349 0 862 426 1349 427 488 1180 488z" id="p" transform="scale(.015625)" class="B C"/><path d="M2375 4863v-479h-550q-309 0-430-125-120-125-120-450v-309h947v-447h-947V0H697v3053H147v447h550v244q0 584 272 851 272 268 862 268h544z" id="q" transform="scale(.015625)" class="B C"/></defs><use xlink:href="#n"/><use x="50.27" xlink:href="#o"/><use x="78.053" xlink:href="#e"/><use x="119.166" xlink:href="#c"/><use x="171.266" xlink:href="#g"/><use x="210.475" xlink:href="#BU"/><use x="242.262" xlink:href="#i"/><use x="305.738" xlink:href="#e"/><use x="344.602" xlink:href="#p"/><use x="405.783" xlink:href="#Z"/><use x="469.162" xlink:href="#d"/><use x="532.639" xlink:href="#BU"/><use x="564.426" xlink:href="#p"/><use x="625.607" xlink:href="#q"/><use x="660.813" xlink:href="#BU"/><use x="692.6" xlink:href="#C"/><use x="756.223" xlink:href="#B"/><use x="819.846" xlink:href="#B"/><use x="883.469" xlink:href="#BU"/><use x="915.256" xlink:href="#g"/><use x="954.465" xlink:href="#b"/><use x="1015.988" xlink:href="#c"/><use x="1068.088" xlink:href="#g"/><use x="1107.297" xlink:href="#c"/></g><g class="I"><path d="M155.305 62.337h20" fill="none" class="F H"/><use x="165.305" xlink:href="#l" y="62.337" fill="#00f"/></g><g transform="matrix(.1 0 0 -.1 183.304688 65.836562)"><use xlink:href="#U"/><use x="63.477" xlink:href="#b"/><use x="125" xlink:href="#a"/><use x="179.98" xlink:href="#p"/><use x="241.162" xlink:href="#f"/><use x="304.541" xlink:href="#m"/><use x="368.018" xlink:href="#BU"/><use x="399.805" xlink:href="#i"/><use x="463.281" xlink:href="#e"/><use x="502.145" xlink:href="#p"/><use x="563.326" xlink:href="#Z"/><use x="626.705" xlink:href="#d"/><use x="690.182" xlink:href="#BU"/><use x="721.969" xlink:href="#p"/><use x="783.15" xlink:href="#q"/><use x="818.355" xlink:href="#BU"/><use x="850.143" xlink:href="#C"/><use x="913.766" xlink:href="#B"/><use x="977.389" xlink:href="#B"/><use x="1041.012" xlink:href="#BU"/><use x="1072.799" xlink:href="#g"/><use x="1112.008" xlink:href="#b"/><use x="1173.531" xlink:href="#c"/><use x="1225.631" xlink:href="#g"/><use x="1264.84" xlink:href="#c"/></g><defs><clipPath id="r"><path d="M45 34.56h279V252H45z" class="B C"/></clipPath></defs></svg>