<?xml version="1.0" encoding="UTF-8" standalone="no"?><!DOCTYPE svg PUBLIC "-//W3C//DTD SVG 1.1//EN" "http://www.w3.org/Graphics/SVG/1.1/DTD/svg11.dtd"><svg width="100%" height="100%" viewBox="0 0 246 288" version="1.1" xmlns="http://www.w3.org/2000/svg" xmlns:xlink="http://www.w3.org/1999/xlink" xml:space="preserve" xmlns:serif="http://www.serif.com/" style="fill-rule:evenodd;clip-rule:evenodd;stroke-linejoin:round;stroke-miterlimit:2;"><rect id="Portfolio" x="0.232" y="0.287" width="244.936" height="287.45" style="fill:none;"/><path d="M208.459,46.574l0,-46.287l-208.227,0l-0,287.451l208.227,-0l0,-51.07l-11.825,11.825l-72.575,-72.575l41.201,-41.201l2.241,2.241l-0,-90.384l40.958,-0Zm-23.958,131.426l-0,-114.426l24.266,-0l0,114.426l19.241,-19.241l17.16,17.159l-48.534,48.533l-48.534,-48.533l17.16,-17.159l19.241,19.241Zm-89.146,-6.709c15.236,-0.601 26.74,-5.11 34.909,-12.249c9.586,-8.379 15.105,-20.423 15.105,-36.712c0,-16.317 -5.6,-28.188 -15.184,-36.267c-8.585,-7.237 -21.212,-11.708 -38.382,-11.708c0,-0 -54.019,-0 -54.019,-0l-0,139.316l57.571,-0l0,-42.38Zm-40.571,25.38l-0,-105.316l37.019,-0c12.189,-0 21.33,2.568 27.425,7.706c6.094,5.137 9.141,12.893 9.141,23.269c0,10.527 -3.097,18.497 -9.292,23.911c-6.195,5.415 -15.287,8.122 -27.274,8.122l-13.448,-0l0,42.308l-23.571,-0Zm34.602,-63.462c5.187,0 9.028,-0.755 11.521,-2.266c2.493,-1.511 3.74,-4.282 3.74,-8.311c-0,-2.619 -0.542,-4.671 -1.625,-6.157c-1.083,-1.486 -2.719,-2.518 -4.91,-3.098c-2.191,-0.579 -5.1,-0.869 -8.726,-0.869l-11.031,0l0,20.701l11.031,0Z"/></svg>