<?xml version="1.0" encoding="UTF-8" standalone="no"?><!DOCTYPE svg PUBLIC "-//W3C//DTD SVG 1.1//EN" "http://www.w3.org/Graphics/SVG/1.1/DTD/svg11.dtd"><svg width="100%" height="100%" viewBox="0 0 246 288" version="1.1" xmlns="http://www.w3.org/2000/svg" xmlns:xlink="http://www.w3.org/1999/xlink" xml:space="preserve" xmlns:serif="http://www.serif.com/" style="fill-rule:evenodd;clip-rule:evenodd;stroke-linejoin:round;stroke-miterlimit:2;"><rect id="ShortPortfolio" x="0.515" y="0.287" width="244.936" height="287.45" style="fill:none;"/><clipPath id="_clip1"><rect x="0.515" y="0.287" width="244.936" height="287.45"/></clipPath><g clip-path="url(#_clip1)"><path d="M116.351,167.394l80.833,80.833l11.559,-11.559l-0,23.118l0.788,0.788l-0.788,-0l-0,27.164l-208.228,-0l0,-287.451l208.228,0l-0,46.287l-24,-0l-0,-22.287l-160.228,0l0,51.272l13.552,13.552l0,124.56l57.572,-0l-0,-42.38c7.886,-0.311 14.772,-1.669 20.712,-3.897Zm68.433,10.606l0,-114.426l24.267,-0l-0,114.426l19.241,-19.241l17.159,17.159l-48.533,48.533l-48.534,-48.533l17.159,-17.159l19.241,19.241Zm-129.717,18.671l0,-105.316l37.02,-0c12.188,-0 21.33,2.568 27.424,7.706c6.095,5.137 9.142,12.893 9.142,23.269c-0,10.527 -3.098,18.497 -9.293,23.911c-4.614,4.033 -10.835,6.564 -18.66,7.593l-0.328,0.042c-0.291,0.036 -0.585,0.071 -0.88,0.103l-0.989,0.1l-1.052,0.089l-1.252,0.082l-0.875,0.044l-1.067,0.038l-1.079,0.023l-1.091,0.008l-13.448,-0l-0,42.308l-23.572,-0Zm34.602,-63.462c5.188,0 9.028,-0.755 11.521,-2.266c2.494,-1.511 3.74,-4.282 3.74,-8.311c0,-2.619 -0.541,-4.671 -1.624,-6.157c-1.083,-1.486 -2.72,-2.518 -4.911,-3.098c-2.191,-0.579 -5.1,-0.869 -8.726,-0.869l-11.03,0l-0,20.701l11.03,0Z"/></g></svg>